# Blender v2.79 (sub 0) OBJ File: ''
# www.blender.org
o Plane.001
v 2.274353 1.328040 0.000000
v 1.561179 1.423528 0.000000
v 0.874265 1.484998 0.000000
v 0.050683 1.500515 0.000000
v 2.322694 1.257618 0.000000
v 2.276740 1.180631 0.000000
v 2.222431 1.129904 0.000000
v 2.235561 1.070821 0.000000
v 2.167526 0.965187 0.000000
v 2.096507 0.905508 0.000000
v 2.098894 0.802261 0.000000
v 2.048167 0.751534 0.000000
v 1.874498 0.768244 0.000000
v 1.796914 0.807036 0.000000
v 1.444804 0.736017 0.000000
v 1.394076 0.753324 0.000000
v 1.356477 0.792713 0.000000
v 0.810407 0.769438 0.000000
v 0.739388 0.698419 0.000000
v 0.470232 0.594576 0.000000
v 0.273289 0.676934 0.000000
v 0.236287 0.727065 0.000000
v 0.165268 0.770631 0.000000
v 0.096040 0.774212 0.000000
v 0.072765 0.796890 0.000000
v 0.048893 0.915653 0.000000
v 0.008310 1.000398 0.000000
v 0.005923 1.033819 0.000000
v 0.044118 1.115580 0.000000
v 0.022634 1.165712 0.000000
v 0.027408 1.194358 0.000000
v 0.013682 1.230166 0.000000
v -0.010190 1.282684 0.000000
v 0.011891 1.372800 0.000000
v 0.025021 1.433674 0.000000
vn -0.0000 -0.0000 1.0000
s off
f 1//1 2//1 3//1 4//1 35//1 34//1 33//1 32//1 31//1 30//1 29//1 28//1 27//1 26//1 25//1 24//1 23//1 22//1 21//1 20//1 19//1 18//1 17//1 16//1 15//1 14//1 13//1 12//1 11//1 10//1 9//1 8//1 7//1 6//1 5//1
