# Blender v2.79 (sub 0) OBJ File: ''
# www.blender.org
mtllib floor1.mtl
o Plane
v -2.737593 1.643253 0.000000
v -3.193110 1.679607 0.000000
v -3.774765 1.745898 0.000000
v -4.454787 1.711603 0.000000
v -2.758261 1.469065 0.000000
v -2.376825 1.458373 0.000000
v -2.126031 1.422914 0.000000
v -2.121754 1.551220 0.000000
v -2.107431 1.638592 0.000000
v -1.694924 1.635727 0.000000
v -1.307483 1.627849 0.000000
v -1.265946 1.880653 0.000000
v -1.262365 2.071867 0.000000
v -0.444513 2.054679 0.000000
v -0.486051 1.729544 0.000000
v -0.438784 1.495360 0.000000
v -0.438784 1.308443 0.000000
v -0.445230 1.189561 0.000000
v -0.391518 1.071395 0.000000
v -0.355710 1.039168 0.000000
v -0.455972 0.915273 0.000000
v -0.436636 0.812862 0.000000
v -0.448810 0.736950 0.000000
v -0.549788 0.702574 0.000000
v -0.666522 0.653159 0.000000
v -0.932217 0.705439 0.000000
v -1.015291 0.767028 0.000000
v -1.070435 0.772758 0.000000
v -1.187885 0.741963 0.000000
v -1.303902 0.745544 0.000000
v -1.369072 0.814295 0.000000
v -1.460740 0.820740 0.000000
v -1.666994 0.782784 0.000000
v -1.689195 0.831483 0.000000
v -1.774417 0.843657 0.000000
v -1.798051 0.877317 0.000000
v -1.792321 0.913125 0.000000
v -1.823832 0.930312 0.000000
v -1.922662 0.896653 0.000000
v -1.988548 0.899518 0.000000
v -2.004304 0.984740 0.000000
v -2.025073 0.996199 0.000000
v -2.121754 0.969701 0.000000
v -2.169020 0.973998 0.000000
v -2.184060 1.024129 0.000000
v -2.209841 1.036304 0.000000
v -2.285754 0.989037 0.000000
v -2.326575 0.936758 0.000000
v -2.348776 0.957526 0.000000
v -2.353789 1.010522 0.000000
v -2.336601 1.058505 0.000000
v -2.400339 1.047046 0.000000
v -2.478047 0.994550 0.000000
v -2.498079 0.994895 0.000000
v -2.493934 1.046355 0.000000
v -2.507749 1.049118 0.000000
v -2.573024 1.009401 0.000000
v -2.589601 1.012509 0.000000
v -2.623102 1.091599 0.000000
v -2.649005 1.097125 0.000000
v -2.732930 1.037376 0.000000
v -2.751234 1.039448 0.000000
v -2.763668 1.067423 0.000000
v -2.775065 1.066732 0.000000
v -2.866587 0.946198 0.000000
v -3.031674 0.999730 0.000000
v -3.143574 1.062588 0.000000
v -3.398801 1.124063 0.000000
v -3.584610 1.242525 0.000000
v -3.753495 1.269118 0.000000
v -4.020811 1.260139 0.000000
v -4.306431 1.206261 0.000000
v -4.399245 1.214924 0.000000
v -4.123370 1.739493 0.000000
v -3.483937 1.706307 0.000000
v -2.965352 1.667876 0.000000
v -2.748644 1.530139 0.000000
v -1.480435 1.642531 0.000000
v -1.274540 1.754251 0.000000
v -0.431623 1.129762 0.000000
v -0.361439 0.991544 0.000000
vn 0.0000 -0.0000 1.0000
usemtl None
s off
f 48//1 47//1 49//1
f 49//1 47//1 50//1
f 51//1 47//1 46//1
f 43//1 45//1 44//1
f 53//1 55//1 54//1
f 56//1 58//1 57//1
f 61//1 63//1 62//1
f 64//1 66//1 65//1
f 39//1 41//1 40//1
f 35//1 37//1 36//1
f 33//1 32//1 34//1
f 29//1 31//1 30//1
f 25//1 27//1 26//1
f 22//1 24//1 23//1
f 19//1 81//1 20//1
f 19//1 80//1 21//1
f 21//1 80//1 24//1
f 72//1 4//1 73//1
f 72//1 71//1 74//1
f 71//1 3//1 74//1
f 70//1 69//1 3//1
f 3//1 69//1 75//1
f 69//1 2//1 75//1
f 68//1 67//1 2//1
f 67//1 76//1 2//1
f 1//1 76//1 77//1
f 77//1 76//1 5//1
f 76//1 64//1 5//1
f 64//1 63//1 5//1
f 63//1 60//1 5//1
f 5//1 60//1 6//1
f 60//1 59//1 6//1
f 59//1 56//1 6//1
f 56//1 55//1 6//1
f 55//1 52//1 6//1
f 52//1 51//1 6//1
f 6//1 51//1 7//1
f 51//1 46//1 7//1
f 46//1 45//1 7//1
f 45//1 42//1 7//1
f 9//1 8//1 10//1
f 8//1 7//1 10//1
f 7//1 42//1 10//1
f 42//1 41//1 10//1
f 41//1 38//1 10//1
f 37//1 10//1 38//1
f 37//1 34//1 78//1
f 34//1 32//1 78//1
f 32//1 11//1 78//1
f 31//1 28//1 11//1
f 15//1 11//1 16//1
f 11//1 15//1 79//1
f 15//1 12//1 79//1
f 13//1 12//1 14//1
f 11//1 28//1 16//1
f 16//1 28//1 17//1
f 28//1 27//1 17//1
f 17//1 27//1 18//1
f 27//1 24//1 18//1
f 18//1 24//1 80//1
f 51//1 50//1 47//1
f 43//1 42//1 45//1
f 53//1 52//1 55//1
f 56//1 59//1 58//1
f 61//1 60//1 63//1
f 64//1 67//1 66//1
f 39//1 38//1 41//1
f 35//1 34//1 37//1
f 29//1 28//1 31//1
f 25//1 24//1 27//1
f 22//1 21//1 24//1
f 19//1 21//1 81//1
f 72//1 74//1 4//1
f 71//1 70//1 3//1
f 69//1 68//1 2//1
f 67//1 64//1 76//1
f 37//1 78//1 10//1
f 32//1 31//1 11//1
f 15//1 14//1 12//1
